<svg width="14" height="20" viewBox="0 0 14 20" fill="none" xmlns="http://www.w3.org/2000/svg">
<path d="M10.5 17.5C12.7697 12.9272 12.5 12.3884 12 8C8.99602 6.7239 8.19363 11.1122 6.99204 12.3884C5.79045 13.6645 2.6644 15.5507 1.06219 10.7652C0.661749 14.9127 2.25231 16.5358 4.18821 18.45L7 19L10.5 17.5Z" fill="#6AB38A"/>
<path fill-rule="evenodd" clip-rule="evenodd" d="M6.73077 20C3.01269 20 0 16.4173 0 12C0 7.58267 6.73077 0 6.73077 0C6.73077 0 13.4615 7.58133 13.4615 12C13.4615 16.4187 10.4475 20 6.73077 20ZM6.73077 2C6.73077 2 1.34616 8.31867 1.34616 12C1.34616 15.6827 3.75712 18.6667 6.73077 18.6667C9.70442 18.6667 12.1154 15.6813 12.1154 12C12.1154 8.31733 6.73077 2 6.73077 2Z" fill="#6AB38A"/>
</svg>
