<svg width="11" height="25" viewBox="0 0 11 25" fill="none" xmlns="http://www.w3.org/2000/svg">
<path d="M7.81277 19.5319C7.81255 19.9615 7.69423 20.3829 7.47075 20.7498C7.24727 21.1168 6.92722 21.4152 6.54559 21.6126C6.16395 21.8099 5.73541 21.8986 5.30679 21.8689C4.87818 21.8392 4.46598 21.6922 4.11524 21.444C3.7645 21.1959 3.48872 20.8561 3.31803 20.4618C3.14734 20.0675 3.08831 19.6339 3.14739 19.2084C3.20647 18.7828 3.38139 18.3817 3.65304 18.0488C3.92468 17.7159 4.2826 17.4641 4.68767 17.3209V3.9064C4.68767 3.69919 4.76999 3.50047 4.9165 3.35395C5.06302 3.20743 5.26174 3.12512 5.46895 3.12512C5.67615 3.12512 5.87488 3.20743 6.02139 3.35395C6.16791 3.50047 6.25022 3.69919 6.25022 3.9064V17.3209C6.70739 17.4825 7.10317 17.782 7.38303 18.178C7.66288 18.574 7.81303 19.047 7.81277 19.5319Z" fill="#6AB38A"/>
<path d="M1.56255 3.90637C1.56255 2.87034 1.97412 1.87674 2.7067 1.14415C3.43929 0.411563 4.43289 0 5.46893 0C6.50496 0 7.49856 0.411563 8.23115 1.14415C8.96374 1.87674 9.3753 2.87034 9.3753 3.90637V15.7036C10.129 16.4728 10.6388 17.4474 10.8408 18.5052C11.0428 19.563 10.928 20.6569 10.5108 21.6497C10.0936 22.6425 9.39262 23.4901 8.49569 24.0861C7.59876 24.6821 6.54582 25 5.46893 25C4.39203 25 3.3391 24.6821 2.44217 24.0861C1.54523 23.4901 0.844226 22.6425 0.427044 21.6497C0.00986172 20.6569 -0.104925 19.563 0.0970778 18.5052C0.29908 17.4474 0.80888 16.4728 1.56255 15.7036V3.90637ZM5.46893 1.56255C4.84731 1.56255 4.25114 1.80949 3.81159 2.24904C3.37204 2.68859 3.1251 3.28475 3.1251 3.90637V16.3865L2.86416 16.6208C2.27441 17.1482 1.8587 17.8423 1.67204 18.6111C1.48539 19.3799 1.53658 20.1873 1.81886 20.9264C2.10113 21.6655 2.60117 22.3015 3.25282 22.7502C3.90446 23.1989 4.67698 23.4391 5.46815 23.4391C6.25931 23.4391 7.03183 23.1989 7.68348 22.7502C8.33512 22.3015 8.83516 21.6655 9.11743 20.9264C9.39971 20.1873 9.4509 19.3799 9.26425 18.6111C9.07759 17.8423 8.66188 17.1482 8.07213 16.6208L7.81275 16.3865V3.90637C7.81275 3.28475 7.56581 2.68859 7.12626 2.24904C6.68671 1.80949 6.09055 1.56255 5.46893 1.56255Z" fill="#6AB38A"/>
</svg>
